<svg width="78" height="78" viewBox="0 0 78 78" fill="none" xmlns="http://www.w3.org/2000/svg">
<path d="M71.403 78H6.59701C3.10448 78 0 74.8955 0 71.403V6.59701C0 3.10448 3.10448 0 6.59701 0H71.403C74.8955 0 78 3.10448 78 6.59701V71.403C78 74.8955 74.8955 78 71.403 78Z" fill="white"/>
<path d="M56.1276 21.0991H48.859C48.1322 21.0991 47.4053 21.8279 47.4053 22.5567L44.1344 33.8527C44.1344 34.2171 43.771 34.2171 43.4076 34.2171H32.5047C32.1413 34.2171 32.1413 33.8527 32.1413 33.8527L35.0487 22.5567C35.4121 21.8279 35.0487 21.0991 34.3218 21.0991H27.0533C26.6898 21.0991 25.963 21.8279 25.5995 22.5567L16.8772 54.9872C16.8772 55.716 17.2407 56.4447 17.9675 56.4447H25.2361C25.963 56.4447 26.6898 55.716 27.0533 54.9872L30.3241 43.3268C30.3917 43.1901 30.3891 43.0175 30.5684 42.9624H41.227C41.5904 42.9624 41.5904 43.3268 41.5904 43.3268L38.683 54.9872C38.3196 55.716 38.683 56.4447 39.4098 56.4447H46.6784C47.4053 56.4447 48.1322 55.716 48.4956 54.9872L57.2179 22.1923C57.2179 21.8279 56.8545 21.0991 56.1276 21.0991Z" fill="#00A76E"/>
<path d="M60.1252 49.1566H56.1275C55.0372 49.1566 54.3103 49.8854 53.9469 50.9786L53.22 54.6224C52.8566 55.7156 53.5834 56.4444 54.3103 56.4444H58.308C59.3983 56.4444 60.1252 55.7156 60.4886 54.6224L61.5789 50.6142C61.5789 49.8854 61.2155 49.1566 60.1252 49.1566Z" fill="#00A76E"/>
</svg>
