<svg width="42" height="36" viewBox="0 0 42 36" fill="none" xmlns="http://www.w3.org/2000/svg">
<path d="M40.1276 0.0991211H32.859C32.1322 0.0991211 31.4053 0.827897 31.4053 1.55667L28.1344 12.8527C28.1344 13.2171 27.771 13.2171 27.4076 13.2171H16.5047C16.1413 13.2171 16.1413 12.8527 16.1413 12.8527L19.0487 1.55667C19.4121 0.827897 19.0487 0.0991211 18.3218 0.0991211H11.0533C10.6898 0.0991211 9.96296 0.827897 9.59953 1.55667L0.877228 33.9872C0.877228 34.716 1.24066 35.4447 1.96752 35.4447H9.2361C9.96296 35.4447 10.6898 34.716 11.0533 33.9872L14.3241 22.3268C14.3917 22.1901 14.3891 22.0175 14.5684 21.9624H25.227C25.5904 21.9624 25.5904 22.3268 25.5904 22.3268L22.683 33.9872C22.3196 34.716 22.683 35.4447 23.4098 35.4447H30.6784C31.4053 35.4447 32.1322 34.716 32.4956 33.9872L41.2179 1.19228C41.2179 0.827897 40.8545 0.0991211 40.1276 0.0991211Z" fill="#00A76E"/>
</svg>
