<svg width="24" height="24" viewBox="0 0 24 24" fill="none" xmlns="http://www.w3.org/2000/svg">
<path fill-rule="evenodd" clip-rule="evenodd" d="M12.9357 4.60749C12.7599 4.2355 12.3972 4 12 4C11.6028 4 11.2401 4.2355 11.0643 4.60749L9.1573 8.64283L4.89259 9.29393C4.49966 9.35392 4.17338 9.64166 4.0509 10.0362C3.92842 10.4308 4.03097 10.8638 4.31544 11.1532L7.40052 14.2918L6.67243 18.7258C6.60528 19.1348 6.76623 19.548 7.0876 19.7919C7.40897 20.0357 7.83501 20.0678 8.18657 19.8747L12 17.78L15.8134 19.8747C16.165 20.0678 16.591 20.0357 16.9124 19.7919C17.2338 19.548 17.3947 19.1348 17.3276 18.7258L16.5995 14.2918L19.6846 11.1532C19.969 10.8638 20.0716 10.4308 19.9491 10.0362C19.8266 9.64166 19.5003 9.35392 19.1074 9.29393L14.8427 8.64283L12.9357 4.60749Z" fill="#FD9942"/>
</svg>
