<svg width="33" height="28" viewBox="0 0 33 28" fill="none" xmlns="http://www.w3.org/2000/svg">
<path d="M31.175 0.230103H25.5838C25.0247 0.230103 24.4655 0.790699 24.4655 1.3513L21.9495 10.0405C21.9495 10.3208 21.6699 10.3208 21.3904 10.3208H13.0035C12.724 10.3208 12.724 10.0405 12.724 10.0405L14.9605 1.3513C15.24 0.790699 14.9605 0.230103 14.4014 0.230103H8.81013C8.53057 0.230103 7.97145 0.790699 7.69189 1.3513L0.982422 26.2978C0.982422 26.8584 1.26198 27.419 1.82111 27.419H7.41233C7.97145 27.419 8.53057 26.8584 8.81013 26.2978L11.3262 17.3283C11.3782 17.2232 11.3762 17.0904 11.5141 17.048H19.713C19.9926 17.048 19.9926 17.3283 19.9926 17.3283L17.7561 26.2978C17.4765 26.8584 17.7561 27.419 18.3152 27.419H23.9064C24.4655 27.419 25.0247 26.8584 25.3042 26.2978L32.0137 1.071C32.0137 0.790699 31.7341 0.230103 31.175 0.230103Z" fill="white"/>
</svg>
